<?xml version="1.0" encoding="utf-8"?>
<!-- Generator: Adobe Illustrator 25.0.0, SVG Export Plug-In . SVG Version: 6.00 Build 0)  -->
<svg version="1.1" id="Слой_1" xmlns="http://www.w3.org/2000/svg" xmlns:xlink="http://www.w3.org/1999/xlink" x="0px" y="0px"
	 viewBox="0 0 410.7 234.6" style="enable-background:new 0 0 410.7 234.6;" xml:space="preserve"
	 preserveAspectRatio="none"
>
<style type="text/css">
	.st0{fill:#FFFFFF;}
</style>
<g>
	<path class="st0" d="M210.1,207.3c13.3-8.1,26.6-16.2,40.4-24.6c0.9,7.6,1.7,13.9,2.5,20.9c10.3-4.7,19.5-8.9,29.3-13.4
		c0.4,3.5,0.7,5.9,1,9.3c31.3-6.4,60.6-16.9,88.9-33.2c-6.7-6.2-12.4-12-18.6-17.2C320.2,121,282.2,100.4,242,83.7
		C192,62.9,139.8,49.4,86.4,40.6c-2.9-0.5-6.3,0.1-9.1,1.2c-6,2.4-11.9,5.2-17.6,8.3c-3,1.6-5,1.3-7.7-0.7C37,38,21.8,26.9,6.7,15.6
		c-2.1-1.5-4-3.3-6.7-5.6C2.9,9.5,4.7,9.2,6.5,9c21.3-2.8,42.6-5.5,63.9-8.6c4.9-0.7,8.2-0.6,10.2,4.7c1.3,3.5,3.8,6.6,5.5,10.1
		c1.4,2.9,3.3,4.2,6.6,4.3c31.1,1.7,61.5,7.4,91.4,15.7c85.9,23.7,160.5,66.6,222.8,130.6c1.2,1.2,2.2,2.7,3.9,4.7
		c-90.9,59.7-189,76.1-294,56.3c-0.2-0.6-0.4-1.1-0.6-1.7c30.5-15.5,60.9-30.9,92.4-46.9c0,9.9,0,19.1,0,28.3
		C209,206.8,209.6,207.1,210.1,207.3z M54,31.4c0.6,0.5,2,0.3,2.8,0c4.6-1.9,9.2-3.8,13.6-6.1c0.9-0.5,1.6-3.2,1.1-4.2
		c-3.6-7.2-4-7.2-12-6.4c-7.6,0.8-15.2,1.5-22.7,2.3c-0.2,0.4-0.4,0.8-0.6,1.3C42.1,22.6,48,27,54,31.4z"/>
	<path class="st0" d="M268.9,120.3c-20.7-17-45.4-25.8-70.3-34.2c-0.3,0.4-0.6,0.7-0.9,1.1c5.2,6.4,10.7,12.5,15.6,19.2
		c3.7,5.1,8.3,7.5,14.4,8.4c12.4,1.8,24.6,4.3,36.9,6.4c1.3,0.2,2.6,0.3,3.9,0.5C268.6,121.2,268.8,120.8,268.9,120.3z"/>
</g>
</svg>
